<svg width="21" height="21" viewBox="0 0 21 21" fill="none" xmlns="http://www.w3.org/2000/svg">
<g clip-path="url(#clip0_582_876)">
<path d="M12.4858 5.71186C12.6185 5.84458 12.6931 6.02459 12.6931 6.21228C12.6931 6.39998 12.6185 6.57999 12.4858 6.71271L9.48322 9.71525C9.3505 9.84797 9.27594 10.028 9.27594 10.2157C9.27594 10.4034 9.3505 10.5834 9.48322 10.7161L12.4858 13.7186C12.6185 13.8514 12.6931 14.0314 12.6931 14.2191C12.6931 14.4068 12.6185 14.5868 12.4858 14.7195C12.353 14.8522 12.173 14.9268 11.9853 14.9268C11.7976 14.9268 11.6176 14.8522 11.4849 14.7195L8.48237 11.717C8.08421 11.3188 7.86053 10.7788 7.86053 10.2157C7.86053 9.65259 8.08421 9.11257 8.48237 8.7144L11.4849 5.71186C11.6176 5.57914 11.7976 5.50457 11.9853 5.50457C12.173 5.50457 12.353 5.57914 12.4858 5.71186ZM11.9903 9.51208L19.9971 9.51208C20.1741 9.51169 20.3447 9.57757 20.4755 9.69676C20.6062 9.81594 20.6876 9.97978 20.7035 10.156C20.7195 10.3322 20.6689 10.508 20.5616 10.6487C20.4544 10.7894 20.2984 10.8849 20.1242 10.9163L19.9971 10.9293L11.9903 10.9293C11.8134 10.9297 11.6428 10.8638 11.512 10.7446C11.3813 10.6254 11.2999 10.4616 11.2839 10.2854C11.268 10.1092 11.3186 9.93339 11.4258 9.79266C11.5331 9.65193 11.6891 9.55647 11.8632 9.52509L11.9903 9.51208Z" fill="#2B2B2B"/>
<path d="M2.78498 2.74485L2.78498 17.8287L2.79799 17.9558C2.82937 18.1299 2.92483 18.286 3.06556 18.3932C3.20629 18.5004 3.38207 18.5511 3.55828 18.5351C3.73448 18.5192 3.89832 18.4378 4.0175 18.307C4.13669 18.1763 4.20258 18.0056 4.20218 17.8287L4.20218 2.74485L4.18917 2.61775C4.15779 2.44363 4.06233 2.28758 3.9216 2.18035C3.78087 2.07312 3.60509 2.0225 3.42888 2.03845C3.25268 2.0544 3.08884 2.13577 2.96966 2.26652C2.85047 2.39728 2.78458 2.56793 2.78498 2.74485Z" fill="#2B2B2B"/>
</g>
<defs>
<clipPath id="clip0_582_876">
<rect width="20.5714" height="20.5714" fill="white"/>
</clipPath>
</defs>
</svg>
